<?xml version="1.0" standalone="no"?>
<!DOCTYPE svg PUBLIC "-//W3C//DTD SVG 20010904//EN"
 "http://www.w3.org/TR/2001/REC-SVG-20010904/DTD/svg10.dtd">
<svg version="1.0" xmlns="http://www.w3.org/2000/svg"
 width="512.000000pt" height="512.000000pt" viewBox="0 0 512.000000 512.000000"
 preserveAspectRatio="xMidYMid meet">

<g transform="translate(0.000000,512.000000) scale(0.100000,-0.100000)"
fill="#000000" stroke="none">
<path d="M2350 5069 c-766 -86 -1414 -580 -1690 -1289 -297 -762 -123 -1534
545 -2425 299 -399 753 -865 1177 -1206 123 -99 155 -116 206 -104 101 22 787
659 1086 1010 683 799 987 1524 916 2183 -47 428 -202 792 -478 1122 -324 388
-804 645 -1312 704 -143 17 -326 19 -450 5z m510 -458 c726 -143 1257 -754
1297 -1492 l6 -119 -361 0 -362 0 0 -520 0 -520 145 0 c174 0 173 3 35 -116
-177 -153 -349 -251 -566 -323 -558 -184 -1185 -40 -1604 370 l-65 64 148 3
147 3 0 519 0 520 -362 0 -361 0 6 119 c29 536 307 1000 772 1291 172 107 418
192 639 220 114 14 366 4 486 -19z"/>
<path d="M1875 4111 c-11 -5 -31 -21 -45 -36 l-25 -27 -3 -1044 -2 -1044 239
0 240 0 3 325 3 325 33 32 32 33 210 0 210 0 32 -33 33 -32 3 -325 3 -325 240
0 239 0 -2 1045 -3 1045 -33 32 -32 33 -678 2 c-372 1 -686 -2 -697 -6z m289
-190 l31 -31 0 -130 0 -130 -33 -32 c-28 -28 -39 -33 -82 -33 -43 0 -54 5 -82
33 l-33 32 0 129 c0 124 1 130 25 156 33 36 57 46 104 41 27 -3 49 -14 70 -35z
m480 0 l31 -31 0 -130 0 -130 -33 -32 c-28 -28 -39 -33 -82 -33 -43 0 -54 5
-82 33 l-33 32 0 129 c0 124 1 130 25 156 33 36 57 46 104 41 27 -3 49 -14 70
-35z m480 0 l31 -31 0 -130 0 -130 -33 -32 c-28 -28 -39 -33 -82 -33 -43 0
-54 5 -82 33 l-33 32 0 129 c0 124 1 130 25 156 33 36 57 46 104 41 27 -3 49
-14 70 -35z m-960 -640 l31 -31 0 -130 0 -130 -33 -32 c-28 -28 -39 -33 -82
-33 -43 0 -54 5 -82 33 l-33 32 0 129 c0 124 1 130 25 156 33 36 57 46 104 41
27 -3 49 -14 70 -35z m480 0 l31 -31 0 -130 0 -130 -33 -32 c-28 -28 -39 -33
-82 -33 -43 0 -54 5 -82 33 l-33 32 0 129 c0 124 1 130 25 156 33 36 57 46
104 41 27 -3 49 -14 70 -35z m480 0 l31 -31 0 -130 0 -130 -33 -32 c-28 -28
-39 -33 -82 -33 -43 0 -54 5 -82 33 l-33 32 0 129 c0 124 1 130 25 156 33 36
57 46 104 41 27 -3 49 -14 70 -35z"/>
</g>
</svg>
