<?xml version="1.0" standalone="no"?>
<!DOCTYPE svg PUBLIC "-//W3C//DTD SVG 20010904//EN"
 "http://www.w3.org/TR/2001/REC-SVG-20010904/DTD/svg10.dtd">
<svg version="1.0" xmlns="http://www.w3.org/2000/svg"
 width="508.000000pt" height="173.000000pt" viewBox="0 0 508.000000 173.000000"
 preserveAspectRatio="xMidYMid meet">

<g transform="translate(0.000000,173.000000) scale(0.100000,-0.100000)"
fill="#000000" stroke="none">
<path d="M3005 1693 c-4 -10 -44 -124 -90 -253 -46 -129 -90 -254 -99 -277
l-15 -43 47 0 47 0 79 223 c43 122 82 228 86 236 4 8 21 -25 42 -85 l36 -99
-48 -3 c-46 -3 -49 -5 -64 -43 -9 -22 -16 -41 -16 -44 0 -2 37 -5 82 -7 l81
-3 31 -87 31 -88 47 0 48 0 -11 28 c-6 15 -49 135 -96 267 -47 132 -90 252
-95 268 -9 25 -14 27 -63 27 -41 0 -54 -4 -60 -17z"/>
<path d="M3419 1521 l-29 -29 0 -266 0 -266 45 0 45 0 0 250 0 250 88 0 c117
0 122 -5 122 -127 0 -112 -9 -123 -98 -123 l-62 0 0 -45 0 -45 66 0 c81 0 132
25 163 80 17 31 21 54 21 135 0 114 -19 159 -80 194 -32 18 -54 21 -145 21
-104 0 -107 -1 -136 -29z"/>
<path d="M3905 1526 l-25 -25 0 -271 0 -270 40 0 40 0 0 250 0 250 90 0 c121
0 130 -8 130 -125 0 -111 -12 -125 -105 -125 l-65 0 0 -46 0 -46 79 3 c131 6
173 54 179 204 3 79 1 95 -20 134 -39 76 -61 85 -198 89 -116 4 -120 3 -145
-22z"/>
<path d="M4422 1198 c-8 -8 -12 -49 -12 -120 0 -96 2 -108 19 -118 27 -14 47
-13 65 6 20 20 23 213 4 232 -15 15 -61 15 -76 0z"/>
<path d="M4705 1123 c-20 -19 -57 -77 -86 -133 -20 -38 -20 -42 -5 -65 16 -25
49 -32 72 -17 20 12 104 159 104 180 0 21 -34 52 -57 52 -6 0 -19 -7 -28 -17z"/>
<path d="M30 1123 c-1 -5 25 -160 57 -345 l57 -338 47 0 46 0 73 136 c40 74
76 132 81 127 4 -4 39 -64 76 -133 l68 -125 47 -3 c44 -3 47 -1 52 25 3 15 28
161 56 323 27 162 52 305 55 318 5 22 3 23 -47 20 l-52 -3 -43 -249 c-23 -137
-44 -251 -46 -253 -3 -2 -31 45 -63 104 l-59 108 -47 3 -47 3 -58 -110 c-32
-61 -60 -111 -63 -111 -3 0 -20 89 -39 198 -18 108 -38 223 -43 255 l-10 57
-49 0 c-27 0 -49 -3 -49 -7z"/>
<path d="M2010 1035 l0 -95 -35 0 -35 0 0 -50 0 -50 35 0 35 0 0 -147 c0 -130
2 -152 20 -181 32 -53 74 -72 158 -72 l72 0 0 50 0 50 -56 0 c-95 0 -94 -1
-94 160 l0 140 75 0 75 0 0 50 0 50 -75 0 -75 0 0 95 0 95 -50 0 -50 0 0 -95z"/>
<path d="M2350 785 l0 -345 50 0 50 0 0 201 0 201 100 -4 c147 -5 144 -1 148
-223 l3 -175 50 0 49 0 0 170 c0 182 -7 219 -53 269 -41 45 -93 61 -199 61
l-98 0 0 95 0 95 -50 0 -50 0 0 -345z"/>
<path d="M890 923 c-50 -34 -50 -37 -48 -225 l3 -178 38 -37 37 -38 170 -3
170 -3 0 50 0 51 -148 0 c-102 0 -152 4 -160 12 -8 8 -12 56 -12 150 l0 138
113 0 c122 0 137 -6 137 -50 0 -42 -17 -50 -107 -50 l-83 0 0 -50 0 -50 91 0
c106 0 148 15 179 65 31 50 28 134 -6 175 -45 53 -69 60 -216 60 -109 0 -138
-3 -158 -17z"/>
<path d="M1510 929 c-32 -13 -78 -56 -96 -91 -10 -19 -14 -63 -14 -148 0 -131
7 -155 57 -202 40 -38 73 -48 159 -48 l74 0 0 50 0 50 -70 0 c-62 0 -74 3 -95
25 -23 22 -25 31 -25 129 0 101 1 105 26 125 23 18 41 21 125 21 l99 0 0 -200
0 -200 50 0 50 0 0 250 0 250 -157 -1 c-87 0 -169 -5 -183 -10z"/>
<path d="M2975 931 c-11 -5 -29 -19 -40 -31 -18 -20 -20 -36 -20 -194 0 -191
5 -208 68 -246 28 -18 51 -20 190 -20 l157 0 0 50 0 50 -144 0 c-118 0 -147 3
-160 16 -13 12 -16 41 -16 150 l0 134 114 0 c91 0 118 -3 130 -16 19 -18 20
-38 6 -65 -9 -17 -22 -19 -100 -19 l-90 0 0 -50 0 -50 99 0 c85 0 102 3 132
23 96 64 86 220 -17 263 -37 16 -274 19 -309 5z"/>
<path d="M3560 922 c-19 -9 -45 -32 -57 -51 -22 -32 -23 -43 -23 -232 l0 -199
50 0 50 0 0 184 c0 217 -1 216 91 216 l59 0 0 50 0 50 -67 0 c-45 0 -80 -6
-103 -18z"/>
<path d="M4866 905 c-32 -19 -62 -35 -65 -35 -15 0 -51 -47 -51 -67 0 -26 23
-46 53 -45 21 0 132 59 170 90 22 19 22 55 -1 75 -26 24 -41 21 -106 -18z"/>
<path d="M4144 912 c-51 -24 -107 -73 -135 -119 l-22 -35 29 -25 c23 -19 24
-22 6 -13 -29 14 -109 15 -143 2 -31 -12 -77 -65 -85 -98 -10 -39 1 -120 20
-149 l17 -25 396 2 397 3 29 41 c56 80 34 166 -57 219 -57 33 -69 32 -91 -12
-18 -36 -19 -37 -23 -13 -13 97 -63 175 -136 212 -58 30 -150 34 -202 10z"/>
<path d="M4816 638 c-21 -29 -20 -41 2 -61 15 -14 40 -17 118 -17 108 0 124 6
124 50 0 44 -16 50 -126 50 -95 0 -104 -2 -118 -22z"/>
<path d="M4772 454 c-51 -36 -8 -90 125 -156 39 -20 43 -20 67 -4 30 19 34 56
9 79 -18 15 -163 97 -173 97 -3 0 -16 -7 -28 -16z"/>
<path d="M4615 296 c-15 -22 -15 -27 1 -58 44 -87 88 -149 111 -154 34 -9 66
22 59 57 -6 30 -82 159 -100 171 -23 15 -56 8 -71 -16z"/>
<path d="M4428 259 c-15 -9 -18 -26 -18 -117 0 -116 6 -132 50 -132 44 0 50
16 50 132 0 96 -2 108 -19 118 -24 12 -41 12 -63 -1z"/>
</g>
</svg>
