<?xml version="1.0" standalone="no"?>
<!DOCTYPE svg PUBLIC "-//W3C//DTD SVG 20010904//EN"
 "http://www.w3.org/TR/2001/REC-SVG-20010904/DTD/svg10.dtd">
<svg version="1.0" xmlns="http://www.w3.org/2000/svg"
 width="508.000000pt" height="161.000000pt" viewBox="0 0 508.000000 161.000000"
 preserveAspectRatio="xMidYMid meet">

<g transform="translate(0.000000,161.000000) scale(0.100000,-0.100000)"
fill="#000000" stroke="none">
<path d="M2896 1308 c-55 -156 -101 -289 -104 -295 -3 -9 9 -13 41 -13 l45 0
26 73 c15 39 53 146 85 237 52 145 60 162 69 140 20 -52 62 -171 62 -176 0 -2
-21 -4 -48 -4 -47 0 -47 0 -63 -45 l-17 -45 82 0 81 0 31 -88 31 -87 46 -3
c26 -2 47 -2 47 0 0 2 -47 134 -103 293 l-103 290 -55 3 -54 3 -99 -283z"/>
<path d="M3403 1406 l-28 -24 -3 -271 -3 -271 46 0 45 0 0 250 0 250 88 0
c118 0 127 -9 127 -125 0 -110 -12 -125 -102 -125 l-63 0 0 -45 0 -45 68 0
c51 0 76 6 106 23 60 34 76 74 76 192 0 118 -16 158 -76 192 -34 20 -54 23
-146 23 -99 0 -109 -2 -135 -24z"/>
<path d="M3893 1415 c-36 -25 -43 -77 -43 -332 l0 -243 45 0 45 0 0 250 0 250
88 0 c48 0 92 -4 98 -8 23 -15 34 -53 34 -117 0 -64 -11 -102 -34 -117 -6 -4
-39 -8 -73 -8 l-63 0 0 -45 0 -45 68 0 c79 0 126 20 160 70 20 29 22 45 22
145 0 100 -2 116 -22 145 -39 56 -78 70 -198 70 -79 0 -111 -4 -127 -15z"/>
<path d="M4425 1227 c-3 -7 -5 -49 -3 -93 3 -73 5 -79 25 -82 28 -4 35 20 31
113 -3 64 -5 70 -26 73 -12 2 -24 -3 -27 -11z"/>
<path d="M4792 1017 c-56 -57 -65 -89 -27 -95 27 -4 128 98 123 124 -7 37 -41
27 -96 -29z"/>
<path d="M66 768 c24 -139 51 -295 60 -345 l16 -93 46 0 47 0 62 118 c94 179
78 177 163 18 l73 -136 46 0 46 0 54 318 c29 174 55 329 58 345 5 27 5 27 -45
27 l-50 0 -11 -62 c-6 -35 -26 -150 -43 -255 -18 -106 -35 -193 -38 -193 -3 0
-31 50 -63 111 l-58 110 -47 -3 -47 -3 -59 -110 c-52 -95 -61 -106 -66 -85 -4
14 -24 130 -46 258 l-39 232 -51 0 -51 0 43 -252z"/>
<path d="M2000 925 l0 -95 -35 0 -35 0 0 -50 0 -50 34 0 35 0 3 -159 c3 -154
4 -160 28 -186 40 -43 73 -55 150 -55 l70 0 0 50 0 50 -56 0 c-95 0 -94 -1
-94 160 l0 140 75 0 75 0 0 50 0 50 -75 0 -75 0 0 95 0 95 -50 0 -50 0 0 -95z"/>
<path d="M2340 675 l0 -345 50 0 50 0 0 200 0 200 89 0 c82 0 92 -2 120 -26
l31 -26 0 -174 0 -174 51 0 50 0 -3 193 -3 194 -29 37 c-44 58 -93 76 -208 76
l-98 0 0 95 0 95 -50 0 -50 0 0 -345z"/>
<path d="M4232 931 c-61 -21 -107 -51 -140 -92 -13 -16 -33 -29 -46 -29 -12 0
-47 -7 -77 -16 -116 -35 -194 -161 -170 -275 14 -66 33 -100 74 -136 64 -56
102 -64 297 -61 l175 3 0 25 0 25 -181 5 c-176 5 -181 6 -222 33 -150 99 -83
327 97 327 47 0 52 3 86 45 40 48 122 95 168 95 36 0 67 16 67 35 0 17 -30 35
-57 35 -10 -1 -42 -9 -71 -19z"/>
<path d="M4428 934 c-27 -27 7 -64 59 -64 80 -1 171 -82 199 -176 41 -141 -56
-291 -201 -312 -56 -8 -81 -35 -53 -56 25 -19 106 -4 170 31 219 119 204 452
-25 553 -51 23 -137 37 -149 24z"/>
<path d="M895 821 c-11 -5 -29 -19 -40 -31 -18 -20 -20 -38 -23 -184 -3 -182
5 -212 67 -253 32 -22 44 -23 192 -23 l159 0 0 50 0 50 -144 0 c-118 0 -147 3
-160 16 -13 12 -16 41 -16 150 l0 134 113 0 c98 0 116 -3 130 -18 21 -23 22
-46 1 -66 -12 -12 -36 -16 -100 -16 l-84 0 0 -50 0 -50 98 0 c116 0 152 16
182 83 25 55 25 83 -2 137 -36 69 -68 80 -223 79 -71 0 -139 -4 -150 -8z"/>
<path d="M1495 814 c-86 -44 -105 -87 -105 -236 0 -130 11 -163 73 -212 36
-29 46 -31 128 -34 l89 -4 0 50 0 50 -76 4 c-105 5 -114 17 -114 148 0 139 5
144 144 148 l106 4 0 -201 0 -201 50 0 50 0 0 250 0 250 -157 0 c-124 0 -165
-4 -188 -16z"/>
<path d="M2955 818 c-51 -28 -55 -42 -55 -222 0 -254 11 -266 264 -266 l156 0
0 50 0 50 -148 0 c-102 0 -152 4 -160 12 -8 8 -12 56 -12 150 l0 138 113 0
c122 0 137 -6 137 -50 0 -42 -17 -50 -107 -50 l-83 0 0 -51 0 -51 104 4 c95 3
107 5 131 28 80 75 72 196 -17 250 -29 17 -51 20 -168 20 -79 0 -143 -5 -155
-12z"/>
<path d="M3541 812 c-72 -36 -76 -49 -79 -278 l-3 -204 50 0 51 0 0 184 c0
217 -1 216 91 216 l59 0 0 50 0 50 -67 0 c-45 0 -80 -6 -102 -18z"/>
<path d="M4330 791 c-35 -34 -47 -75 -30 -96 20 -24 40 -17 55 19 19 45 52 56
76 27 22 -28 16 -47 -32 -91 -21 -20 -41 -48 -45 -64 -14 -56 36 -90 58 -39 7
15 29 47 50 70 60 67 62 120 8 174 -22 23 -38 29 -70 29 -32 0 -48 -6 -70 -29z"/>
<path d="M4880 645 c-7 -8 -10 -22 -6 -30 5 -13 22 -15 93 -13 77 3 88 5 91
22 6 28 -15 36 -94 36 -51 0 -75 -4 -84 -15z"/>
<path d="M4360 486 c-18 -22 -5 -46 25 -46 23 0 26 4 23 27 -3 32 -29 41 -48
19z"/>
<path d="M4747 333 c-17 -16 -3 -42 47 -92 34 -34 60 -52 72 -49 37 7 27 39
-27 94 -50 50 -76 64 -92 47z"/>
<path d="M4431 196 c-8 -9 -11 -43 -9 -93 3 -76 4 -78 28 -78 24 0 25 2 28 78
3 74 -6 107 -28 107 -4 0 -13 -6 -19 -14z"/>
</g>
</svg>
